#tb 0: 1/10
#media_type 0: video
#codec_id 0: gif
#dimensions 0: 217x217
#sar 0: 0/1
0,          0,          0,        1,     1341, 0xe4e2af18
0,          1,          1,        1,      305, 0xefa98bbd, F=0x0
0,          2,          2,        1,      446, 0x9499cf43, F=0x0
0,          3,          3,        1,      458, 0x8cb7d0d5, F=0x0
0,          4,          4,        1,      555, 0x41f2fe63, F=0x0
0,          5,          5,        1,      622, 0x3651212e, F=0x0
0,          6,          6,        1,      650, 0x67542087, F=0x0
0,          7,          7,        1,      668, 0x392934ca, F=0x0
0,          8,          8,        1,      829, 0x6cd07a33, F=0x0
0,          9,          9,        1,     1165, 0xb64b2ec9, F=0x0
0,         10,         10,        1,      187, 0x114a52a4, F=0x0
0,         11,         11,        1,     1341, 0x6ca57064, F=0x0
0,         12,         12,        1,     1646, 0xcdd90fae, F=0x0
0,         13,         13,        1,     1539, 0xbf75e55f, F=0x0
0,         14,         14,        1,     1728, 0x96b14714, F=0x0
0,         15,         15,        1,     1918, 0xffd08446, F=0x0
0,         16,         16,        1,     2132, 0x3d5ae258, F=0x0
0,         17,         17,        1,     2256, 0x359526d9, F=0x0
0,         18,         18,        1,     2319, 0x553c382b, F=0x0
0,         19,         19,        1,     2416, 0x7ac37066, F=0x0
0,         20,         20,        1,     2609, 0x552bc27f, F=0x0
0,         21,         21,        1,     2695, 0xbb0c020e, F=0x0
0,         22,         22,        1,     2792, 0x46670f7d, F=0x0
0,         23,         23,        1,     2892, 0x5674481e, F=0x0
0,         24,         24,        1,     2990, 0x015a7bfd, F=0x0
0,         25,         25,        1,     3109, 0xc73e9d14, F=0x0
0,         26,         26,        1,     3261, 0x8a77f522, F=0x0
0,         27,         27,        1,     3337, 0xf6f92558, F=0x0
0,         28,         28,        1,     3580, 0x23408bc8, F=0x0
0,         29,         29,        1,     3815, 0x781dfb1b, F=0x0
0,         30,         30,        1,     2758, 0xf5cd1d5b, F=0x0
0,         31,         31,        1,     4039, 0x7909712e, F=0x0
0,         32,         32,        1,     3033, 0x39089d44, F=0x0
0,         33,         33,        1,     4303, 0x667b0c60, F=0x0
0,         34,         34,        1,     2052, 0x9edfba63, F=0x0
0,         35,         35,        1,     3220, 0x5a56f015, F=0x0
0,         36,         36,        1,     2300, 0x1719645c, F=0x0
0,         37,         37,        1,     3641, 0x71c49a57, F=0x0
0,         38,         38,        1,     3560, 0x377575b8, F=0x0
0,         39,         39,        1,     3698, 0x165adce0, F=0x0
0,         40,         40,        1,     1567, 0x6ecbf672, F=0x0
0,         41,         41,        1,      962, 0x21eccba1, F=0x0
0,         42,         42,        1,      281, 0x7a5a7ac3, F=0x0
0,         43,         43,        1,      938, 0x659bb1ec, F=0x0
0,         44,         44,        1,      279, 0x71e181bc, F=0x0
0,         45,         45,        1,      204, 0xe0765316, F=0x0
0,         46,         46,        1,     4307, 0xdbdd0e7d, F=0x0
0,         47,         47,        1,     4903, 0xd8d24194, F=0x0
0,         48,         48,        1,     4936, 0x6e9f1aff, F=0x0
0,         49,         49,        1,     4949, 0xb3115902, F=0x0
0,         50,         50,        1,     4162, 0xee2cad5b, F=0x0
0,         51,         51,        1,     4686, 0xd583c178, F=0x0
0,         52,         52,        1,     4749, 0x8c93b6a9, F=0x0
0,         53,         53,        1,     4990, 0x12f957fd, F=0x0
0,         54,         54,        1,     5187, 0xf3bcc7c9, F=0x0
0,         55,         55,        1,     5054, 0xa27684fb, F=0x0
0,         56,         56,        1,     5148, 0xe76cbad7, F=0x0
0,         57,         57,        1,     4309, 0x79f7f067, F=0x0
0,         58,         58,        1,     5087, 0xa2e29f29, F=0x0
0,         59,         59,        1,     5292, 0xd158e4db, F=0x0
0,         60,         60,        1,     5434, 0xe0be16f5, F=0x0
0,         61,         61,        1,     4653, 0x0a3d8a5e, F=0x0
0,         62,         62,        1,     5271, 0x4412d0a5, F=0x0
0,         63,         63,        1,     5229, 0x3e06c4f2, F=0x0
0,         64,         64,        1,     5225, 0x9bc39cfa, F=0x0
0,         65,         65,        1,     5403, 0x798b009d, F=0x0
0,         66,         66,        1,     5228, 0x14f2dded, F=0x0
0,         67,         67,        1,     5712, 0x8724debe, F=0x0
0,         68,         68,        1,     5644, 0x49d3a383, F=0x0
0,         69,         69,        1,     5826, 0xde72e0ba, F=0x0
0,         70,         70,        1,     5771, 0x62efd718, F=0x0
0,         71,         71,        1,     6124, 0xb2a68c70, F=0x0
0,         72,         72,        1,     6077, 0xb48b693f, F=0x0
0,         73,         73,        1,     5804, 0xb700db6c, F=0x0
0,         74,         74,        1,     6007, 0x02953898, F=0x0
0,         75,         75,        1,     6228, 0x87a7b197, F=0x0
0,         76,         76,        1,     6382, 0x49e7e65b, F=0x0
0,         77,         77,        1,     6473, 0x3b9b6c3d, F=0x0
0,         78,         78,        1,     7027, 0x2a4e1c17, F=0x0
0,         79,         79,        1,     7263, 0x2e48c2e7, F=0x0
0,         80,         80,        1,     8205, 0x013b701a, F=0x0
0,         81,         81,        1,     8366, 0xcca97b10, F=0x0
0,         82,         82,        1,     7716, 0x3b088fb3, F=0x0
0,         83,         83,        1,     7420, 0xefdd1187, F=0x0
0,         84,         84,        1,     7549, 0x1731227c, F=0x0
0,         85,         85,        1,     7956, 0x8186ceb3, F=0x0
0,         86,         86,        1,     8416, 0x23add53c, F=0x0
0,         87,         87,        1,     8064, 0x09c616c4, F=0x0
0,         88,         88,        1,     7409, 0x9d98af03, F=0x0
0,         89,         89,        1,     7502, 0x0b81ebf3, F=0x0
0,         90,         90,        1,     7814, 0x2f0d75cb, F=0x0
0,         91,         91,        1,     7776, 0x45d6800f, F=0x0
0,         92,         92,        1,     7757, 0x777f98b6, F=0x0
0,         93,         93,        1,     8055, 0x4eea1634, F=0x0
0,         94,         94,        1,     7626, 0xfb3931fd, F=0x0
0,         95,         95,        1,     7987, 0x22a1d052, F=0x0
0,         96,         96,        1,    12070, 0x3aa2924d, F=0x0
0,         97,         97,        1,    12325, 0xda6cd811, F=0x0
0,         98,         98,        1,    12225, 0xd478e671, F=0x0
0,         99,         99,        1,    11235, 0xc6c09240, F=0x0
0,        100,        100,        1,    11116, 0x95050c25, F=0x0
0,        101,        101,        1,    11374, 0x14a68e3d, F=0x0
0,        102,        102,        1,    11904, 0xb14436f2, F=0x0
0,        103,        103,        1,    11487, 0xa3358311, F=0x0
0,        104,        104,        1,    13403, 0xccf33a00, F=0x0
0,        105,        105,        1,    12921, 0xbf7e4759, F=0x0
0,        106,        106,        1,    13872, 0x7dace890, F=0x0
0,        107,        107,        1,    13559, 0xb6c868f9, F=0x0
0,        108,        108,        1,    14049, 0xa5d569b0, F=0x0
0,        109,        109,        1,    14152, 0x8c9c31fb, F=0x0
0,        110,        110,        1,    14285, 0x2ffe3bc3, F=0x0
0,        111,        111,        1,    14432, 0x27abe196, F=0x0
0,        112,        112,        1,    14697, 0x20d1aedd, F=0x0
0,        113,        113,        1,    14606, 0xbcbe586d, F=0x0
0,        114,        114,        1,    15221, 0x515f8224, F=0x0
0,        115,        115,        1,    15433, 0x68089081, F=0x0
0,        116,        116,        1,    15603, 0x8ff4e6fd, F=0x0
0,        117,        117,        1,    15606, 0xc8527e30, F=0x0
0,        118,        118,        1,    15871, 0x056ddca3, F=0x0
0,        119,        119,        1,    15725, 0xc1871caf, F=0x0
0,        120,        120,        1,    16086, 0x063e257b, F=0x0
0,        121,        121,        1,    16233, 0xf683823b, F=0x0
0,        122,        122,        1,    16143, 0x576df609, F=0x0
0,        123,        123,        1,    16669, 0x3d02346b, F=0x0
0,        124,        124,        1,    16627, 0xe35236cc, F=0x0
0,        125,        125,        1,    16837, 0x389c996c, F=0x0
0,        126,        126,        1,    16952, 0xc833af9f, F=0x0
0,        127,        127,        1,    17127, 0xbf124531, F=0x0
0,        128,        128,        1,    17158, 0x7abbfe59, F=0x0
0,        129,        129,        1,    17329, 0x8102cc38, F=0x0
0,        130,        130,        1,    17403, 0xa9468cad, F=0x0
0,        131,        131,        1,    17674, 0x46d8038c, F=0x0
0,        132,        132,        1,    17738, 0x5ee865ce, F=0x0
0,        133,        133,        1,    17942, 0xc2449873, F=0x0
0,        134,        134,        1,    17952, 0x3aafedbc, F=0x0
0,        135,        135,        1,    18246, 0xdd930054, F=0x0
0,        136,        136,        1,    18399, 0x68a59331, F=0x0
0,        137,        137,        1,    18551, 0x1301c157, F=0x0
0,        138,        138,        1,    18947, 0xbed8a9b4, F=0x0
0,        139,        139,        1,    19153, 0xe338fea2, F=0x0
0,        140,        140,        1,    19128, 0xbf05820e, F=0x0
0,        141,        141,        1,    19138, 0x73b5cd49, F=0x0
0,        142,        142,        1,    19502, 0xd8d68603, F=0x0
0,        143,        143,        1,    19542, 0x84b47563, F=0x0
0,        144,        144,        1,    19755, 0x7194b230, F=0x0
0,        145,        145,        1,    20122, 0x83633f5e, F=0x0
0,        146,        146,        1,    20265, 0x7365b06b, F=0x0
0,        147,        147,        1,    20378, 0x1aaf1a98, F=0x0
0,        148,        148,        1,    20300, 0x1da6d336, F=0x0
0,        149,        149,        1,    20499, 0x72d54d30, F=0x0
0,        150,        150,        1,    20655, 0x6996b124, F=0x0
0,        151,        151,        1,    20674, 0xa883abd2, F=0x0
0,        152,        152,        1,    21015, 0x96cf4018, F=0x0
0,        153,        153,        1,    21066, 0x307e4479, F=0x0
0,        154,        154,        1,    21161, 0xd45a2c38, F=0x0
0,        155,        155,        1,    21086, 0xcf0e597d, F=0x0
0,        156,        156,        1,    21466, 0xcc4032fe, F=0x0
0,        157,        157,        1,    21677, 0x755ccb7b, F=0x0
0,        158,        158,        1,    21589, 0x5d74fb47, F=0x0
0,        159,        159,        1,    21662, 0x0c459189, F=0x0
0,        160,        160,        1,    21995, 0x43d46eb3, F=0x0
0,        161,        161,        1,    22213, 0x68455c92, F=0x0
0,        162,        162,        1,    22483, 0xdc83c15a, F=0x0
0,        163,        163,        1,    22498, 0xfae1251e, F=0x0
0,        164,        164,        1,    22468, 0x7944b1d4, F=0x0
0,        165,        165,        1,    22869, 0xff8c10ac, F=0x0
0,        166,        166,        1,    22754, 0xd8183b84, F=0x0
0,        167,        167,        1,    23173, 0x6c3c48d5, F=0x0
0,        168,        168,        1,    23281, 0xc32ca477, F=0x0
0,        169,        169,        1,    23219, 0x4dc26193, F=0x0
0,        170,        170,        1,    23656, 0xb85ee15f, F=0x0
0,        171,        171,        1,    23683, 0x26ba4915, F=0x0
0,        172,        172,        1,    23882, 0xf57285de, F=0x0
